<?xml version="1.0" encoding="UTF-8"?>
<svg id="svg1" xmlns="http://www.w3.org/2000/svg" version="1.1" viewBox="0 0 246.8 209.9">
  <defs>
    <style>
      .cls-1 {
        fill: #000;
      }

      .cls-1, .cls-2 {
        stroke-width: 0px;
      }

      .cls-3 {
        isolation: isolate;
      }

      .cls-2 {
        fill: none;
      }
    </style>
  </defs>
  <g id="layer1">
    <g id="g1">
      <g id="g2">
        <path id="rect97-4-0-7-6" class="cls-1" d="M17.4,0C7.8,0,0,7.8,0,17.4v45.1c0,4.8,3.9,8.7,8.7,8.7,4.8,0,8.7-3.9,8.7-8.7h0v-19c0-4.8,3.9-8.7,8.7-8.7h8.7c7.4,0,14-4.6,16.4-11.6h0c1.2-3.5,4.5-5.8,8.2-5.8h4.8c4.7,0,8.4,3.7,8.5,8.4v36.7c0,4.8,3.9,8.7,8.7,8.7s8.7-3.9,8.7-8.7v-27.8c0-9.6,7.8-17.4,17.4-17.4h20.6c9.6,0,17.4,7.8,17.4,17.4v32l17.4-1.1V17.4c0-9.6-7.8-17.4-17.4-17.4H17.4Z"/>
        <path id="path29-8-4-7-4-8" class="cls-1" d="M155.4,56.3h-1c-5.4,0-8.7,4.2-9,10.3h0c0,3.8,1.4,7.6,4.1,10.3h0l.4.4.7.7,6.2,5.8.4.4h0l2.5,2.3,1.2,1.1.4.4h.1c3.4,3.3,4.6,6.4,4.8,11.6v14.9c0,1.1,0,2.1-.3,3.2h0c-.4,3.2-2,6.2-4.5,8.3h-.1c0,.1-.4.5-.4.5l-3.6,3.4h0l-8.6,8.1c-3.8,3.6-4.4,8.3-1.2,11.8l1.2,1.3c1.4,1.5,3.3,2.4,5.3,2.4h.2c2.2-.1,4.4-1,6-2.5,2.9-3,5.7-5.4,8.2-7.7l1.6-1.5,2.3-2.1c2.3-2.1,4.3-4.5,5.9-7.2.1-.1.2-.2.2-.4.4-.8.9-1.6,1.2-2.4,0-.1.1-.2.1-.3.7-1.7,1.6-3.3,2.6-4.8.8-1.4,1.8-2.6,3-3.6h0c1.4-1.2,3-2,4.7-2.5,1.6-.5,3.2-.8,4.9-.8h0c1.7,0,3.4.3,5,.8,1.7.5,3.3,1.4,4.7,2.5h0c1.2,1,2.3,2.2,3,3.6,1,1.5,1.9,3.1,2.6,4.8,0,.1.1.2.1.3l1.2,2.4c.1.1.2.2.2.4,1.7,2.6,3.6,5.1,5.9,7.2l2.3,2.1,1.6,1.5c2.5,2.3,5.3,4.7,8.2,7.7,1.6,1.5,3.8,2.4,6,2.5h.2c2,0,3.9-.9,5.3-2.4l1.2-1.3c3.2-3.4,2.6-8.2-1.2-11.8l-8.6-8.1h0l-3.6-3.4-.4-.4h-.1c-2.5-2.2-4.1-5.2-4.5-8.4h0c-.2-1.1-.3-2.1-.3-3.2v-8.4h0v-6.7c.2-5.2,1.4-8.3,4.8-11.5h.1c0-.1.4-.5.4-.5l3.6-3.4h0l8.6-8.1c3.8-3.6,4.4-8.3,1.2-11.8l-1.2-1.3c-1.4-1.5-3.3-2.4-5.3-2.4h-.2c-2.2.1-4.4,1-6,2.5-2.9,3-5.7,5.4-8.2,7.7l-1.6,1.5-2.3,2.1c-2.3,2.1-4.3,4.5-5.9,7.2-.1.1-.2.2-.2.4-.4.8-.9,1.6-1.2,2.4,0,.1-.1.2-.1.3-.7,1.7-1.6,3.3-2.6,4.8-.8,1.4-1.8,2.6-3,3.6h0c-1.4,1.2-3,2-4.7,2.5-1.6.5-3.3.8-5,.8h.1c-1.8,0-3.5-.3-5.2-.9q-.1,0-.2-.1c-1.4-.4-2.7-1.1-3.8-2-1.5-1.1-2.8-2.6-3.7-4.3-.9-1.4-1.6-2.9-2.3-4.4h0c-.6-1.3-1.2-2.4-1.9-3.6h0c-1.5-2.4-3.3-4.6-5.4-6.5h0l-2.5-2.3h0l-4.4-4.1c-1.6-1.6-2.6-3.8-2.8-6.1h0c-1.3-3.4-4.3-3.5-7.4-5.6h0Z"/>
      </g>
      <rect class="cls-2" x="0" y="175.2" width="244.5" height="34.7"/>
      <g class="cls-3">
        <g class="cls-3">
          <g class="cls-3">
            <path class="cls-1" d="M1.9,192.5v-17.2h3.7l4.4,12.2c.4,1.1.7,2,.9,2.5.2-.6.5-1.5,1-2.8l4.4-12h3.3v17.2h-2.4v-14.4l-5.4,14.4h-2.2l-5.4-14.6v14.6H1.9Z"/>
            <path class="cls-1" d="M23.6,192.5v-17.2h13.4v2h-11v5.3h10.3v2h-10.3v5.8h11.4v2h-13.8Z"/>
            <path class="cls-1" d="M45.6,192.5v-15.2h-6.1v-2h14.7v2h-6.1v15.2h-2.5Z"/>
            <path class="cls-1" d="M56.8,192.5v-17.2h8.2c1.7,0,2.9.2,3.8.5.9.3,1.5.9,2.1,1.6s.8,1.6.8,2.6-.4,2.2-1.3,3.1c-.9.8-2.2,1.4-3.9,1.6.6.3,1.1.6,1.5.9.7.6,1.4,1.4,2,2.3l3.2,4.7h-3.1l-2.5-3.6c-.7-1-1.3-1.8-1.8-2.4-.5-.5-.9-.9-1.2-1.1s-.7-.4-1.1-.5c-.3,0-.7,0-1.4,0h-2.8v7.6h-2.5ZM59.2,183h5.3c1.1,0,2-.1,2.6-.3s1.1-.6,1.4-1c.3-.5.5-1,.5-1.5,0-.8-.3-1.5-1-2s-1.6-.8-3-.8h-5.9v5.7Z"/>
            <path class="cls-1" d="M74.7,184.2c0-2.9.8-5.1,2.5-6.7s3.8-2.4,6.4-2.4,3.3.4,4.6,1.1c1.4.8,2.4,1.8,3.1,3.2.7,1.4,1.1,2.9,1.1,4.6s-.4,3.3-1.1,4.7-1.8,2.4-3.2,3.1c-1.4.7-2.9,1.1-4.5,1.1s-3.3-.4-4.7-1.2c-1.4-.8-2.4-1.8-3.1-3.2-.7-1.4-1.1-2.8-1.1-4.3ZM77.2,184.2c0,2.1.6,3.7,1.8,4.9,1.2,1.2,2.7,1.8,4.5,1.8s3.4-.6,4.6-1.8,1.8-2.9,1.8-5.1-.3-2.6-.8-3.7c-.5-1-1.3-1.9-2.2-2.4s-2.1-.9-3.3-.9c-1.7,0-3.2.6-4.5,1.7s-1.9,3-1.9,5.5Z"/>
            <path class="cls-1" d="M102,184.2c0-2.9.8-5.1,2.5-6.7s3.8-2.4,6.4-2.4,3.3.4,4.6,1.1c1.4.8,2.4,1.8,3.1,3.2.7,1.4,1.1,2.9,1.1,4.6s-.4,3.3-1.1,4.7-1.8,2.4-3.2,3.1c-1.4.7-2.9,1.1-4.5,1.1s-3.3-.4-4.7-1.2c-1.4-.8-2.4-1.8-3.1-3.2-.7-1.4-1.1-2.8-1.1-4.3ZM104.6,184.2c0,2.1.6,3.7,1.8,4.9,1.2,1.2,2.7,1.8,4.5,1.8s3.4-.6,4.6-1.8,1.8-2.9,1.8-5.1-.3-2.6-.8-3.7c-.5-1-1.3-1.9-2.2-2.4s-2.1-.9-3.3-.9c-1.7,0-3.2.6-4.5,1.7s-1.9,3-1.9,5.5Z"/>
          </g>
          <g class="cls-3">
            <path class="cls-1" d="M120.9,192.5v-17.2h2.5v15.2h9.1v2h-11.6Z"/>
          </g>
          <g class="cls-3">
            <path class="cls-1" d="M133.3,184.2c0-2.9.8-5.1,2.5-6.7s3.8-2.4,6.4-2.4,3.3.4,4.6,1.1c1.4.8,2.4,1.8,3.1,3.2.7,1.4,1.1,2.9,1.1,4.6s-.4,3.3-1.1,4.7c-.8,1.4-1.8,2.4-3.2,3.1-1.4.7-2.9,1.1-4.5,1.1s-3.3-.4-4.7-1.2-2.4-1.8-3.1-3.2c-.7-1.4-1.1-2.8-1.1-4.3ZM135.8,184.2c0,2.1.6,3.7,1.8,4.9s2.7,1.8,4.5,1.8,3.4-.6,4.6-1.8,1.8-2.9,1.8-5.1-.3-2.6-.8-3.7c-.5-1-1.3-1.9-2.2-2.4s-2.1-.9-3.3-.9c-1.7,0-3.2.6-4.5,1.7-1.3,1.1-1.9,3-1.9,5.5Z"/>
            <path class="cls-1" d="M162.9,185.8v-2h7.9s0,6.4,0,6.4c-1.2.9-2.5,1.6-3.7,2-1.3.4-2.6.7-3.9.7s-3.5-.4-5-1.1c-1.5-.7-2.6-1.8-3.4-3.1-.8-1.4-1.1-2.9-1.1-4.6s.4-3.2,1.1-4.7,1.8-2.5,3.3-3.2,3.1-1.1,4.9-1.1,2.6.2,3.6.6,1.9,1,2.5,1.7,1.1,1.7,1.4,2.8l-2.2.6c-.3-.9-.6-1.6-1-2.1s-1-.9-1.8-1.2c-.8-.3-1.6-.5-2.6-.5s-2.1.2-2.9.5-1.5.7-2,1.2-.9,1.1-1.2,1.7c-.5,1.1-.7,2.2-.7,3.5s.3,2.8.9,3.8c.6,1,1.4,1.8,2.5,2.3,1.1.5,2.2.8,3.5.8s2.1-.2,3.1-.6c1-.4,1.8-.8,2.3-1.2v-3.2h-5.5Z"/>
            <path class="cls-1" d="M174.4,192.5v-17.2h8.2c1.7,0,2.9.2,3.8.5.9.3,1.5.9,2.1,1.6.5.8.8,1.6.8,2.6s-.4,2.2-1.3,3.1c-.9.8-2.2,1.4-3.9,1.6.7.3,1.1.6,1.5.9.7.6,1.4,1.4,2,2.3l3.2,4.7h-3.1l-2.5-3.6c-.7-1-1.3-1.8-1.8-2.4-.5-.5-.9-.9-1.2-1.1s-.7-.4-1.1-.5c-.3,0-.7,0-1.4,0h-2.8v7.6h-2.5ZM176.8,183h5.3c1.1,0,2-.1,2.6-.3s1.1-.6,1.4-1c.3-.5.5-1,.5-1.5,0-.8-.3-1.5-1-2-.6-.5-1.6-.8-3-.8h-5.9v5.7Z"/>
            <path class="cls-1" d="M191,192.5l7.1-17.2h2.6l7.6,17.2h-2.8l-2.2-5.2h-7.8l-2,5.2h-2.6ZM196.4,185.5h6.3l-1.9-4.8c-.6-1.4-1-2.6-1.3-3.6-.2,1.1-.6,2.2-1,3.3l-2,5Z"/>
            <path class="cls-1" d="M210.5,192.5v-17.2h12.5v2h-10.1v5.3h8.7v2h-8.7v7.8h-2.5Z"/>
            <path class="cls-1" d="M226.6,192.5v-17.2h2.5v17.2h-2.5Z"/>
            <path class="cls-1" d="M231.5,192.5l7.2-9-6.3-8.2h2.9l3.4,4.4c.7.9,1.2,1.6,1.5,2.1.4-.6.9-1.3,1.5-2l3.7-4.6h2.7l-6.5,8.1,7,9.1h-3l-4.7-6.1c-.3-.4-.5-.7-.8-1.1-.4.6-.7,1.1-.9,1.3l-4.7,6h-2.9Z"/>
          </g>
        </g>
      </g>
    </g>
  </g>
</svg>